<svg width="36" height="36" viewBox="0 0 36 36" fill="none" xmlns="http://www.w3.org/2000/svg">
<g id="insta-ico" clip-path="url(#clip0_261_12)">
<path id="empha" d="M34.88 17.69C34.88 27.1838 27.1838 34.88 17.69 34.88C8.19623 34.88 0.5 27.1838 0.5 17.69C0.5 8.19623 8.19623 0.5 17.69 0.5C27.1838 0.5 34.88 8.19623 34.88 17.69Z" fill="" stroke=""/>
<g id="plain">
<path id="Vector" d="M22.46 12.22C22.46 11.8188 22.7835 11.5 23.18 11.5C23.5839 11.5 23.9 11.8161 23.9 12.22C23.9 12.6239 23.5839 12.94 23.18 12.94C22.7762 12.94 22.46 12.6239 22.46 12.22Z" fill="" stroke=""/>
<path id="Vector_2" d="M13.17 17.67C13.17 15.1261 15.2361 13.06 17.78 13.06C20.3238 13.06 22.39 15.1261 22.39 17.67C22.39 20.2139 20.3238 22.28 17.78 22.28C15.2361 22.28 13.17 20.2139 13.17 17.67ZM14.01 17.67C14.01 19.7461 15.7038 21.44 17.78 21.44C19.8561 21.44 21.55 19.7461 21.55 17.67C21.55 15.5939 19.8561 13.9 17.78 13.9C15.7038 13.9 14.01 15.5939 14.01 17.67Z" fill="" stroke=""/>
<path id="Vector_3" d="M21.83 27.54H13.55C10.3867 27.54 7.82001 24.9644 7.82001 21.81V13.53C7.82001 10.3661 10.3861 7.79999 13.55 7.79999H21.83C24.9939 7.79999 27.56 10.3661 27.56 13.53V21.81C27.56 24.9733 24.9844 27.54 21.83 27.54ZM13.55 8.74999C10.9139 8.74999 8.77001 10.8938 8.77001 13.53V21.81C8.77001 24.4461 10.9139 26.59 13.55 26.59H21.83C24.4662 26.59 26.61 24.4461 26.61 21.81V13.53C26.61 10.8938 24.4662 8.74999 21.83 8.74999H13.55Z" fill="" stroke=""/>
</g>
</g>
<defs>
<clipPath id="clip0_261_12">
<rect width="35.38" height="35.38" fill=""/>
</clipPath>
</defs>
</svg>
