<svg width="223" height="45" viewBox="0 0 223 45" fill="none" xmlns="http://www.w3.org/2000/svg">
<g id="penang-logo" clip-path="url(#clip0_1001_2)">
<g id="empha">
<path id="Vector" d="M60.38 4.97999C61.87 4.97999 63.28 5.30999 64.55 5.89999L60.38 -0.0100098L56.21 5.89999C57.48 5.30999 58.89 4.97999 60.38 4.97999Z" fill="#FB5105"/>
</g>
<g id="plain">
<path id="Vector_2" d="M60.38 7.32001C55.1 7.32001 50.81 11.6 50.81 16.89C50.81 22.18 55.09 26.46 60.38 26.46C65.67 26.46 69.95 22.18 69.95 16.89C69.95 11.6 65.67 7.32001 60.38 7.32001ZM60.44 21.12C58.1 21.12 56.21 19.22 56.21 16.89C56.21 14.55 58.1 12.66 60.44 12.66C62.78 12.66 64.67 14.56 64.67 16.89C64.67 19.22 62.78 21.12 60.44 21.12Z" fill="#1D1D1B"/>
<path id="Vector_3" d="M4.49 12.15H0V7.64001H13.98V12.15H9.66V26.07H4.49V12.15Z" fill="#1D1D1B"/>
<path id="Vector_4" d="M21.02 7.64001V14.28H25.57V7.64001H30.74V26.07H25.57V18.79H21.03V26.07H15.85V7.64001H21.02Z" fill="#1D1D1B"/>
<path id="Vector_5" d="M44.38 19H38.19V21.54H45.17V26.05H33.02V7.62H44.79V12.15H38.19V14.5H44.38V19Z" fill="#1D1D1B"/>
<path id="Vector_6" d="M101.29 19H95.1V21.54H102.09V26.05H89.93V7.62H101.7V12.15H95.1V14.5H101.3L101.29 19Z" fill="#1D1D1B"/>
<path id="Vector_7" d="M112.98 20.22L111.06 26.05H108.59L114.88 7.53003H117.77L124.1 26.05H121.54L119.56 20.22H113H112.98ZM119.05 18.35L117.24 13.02C116.83 11.81 116.55 10.71 116.28 9.64003H116.23C115.95 10.74 115.65 11.87 115.29 12.99L113.48 18.35H119.06H119.05Z" fill="#1D1D1B"/>
<path id="Vector_8" d="M145.01 20.22L143.09 26.05H140.61L146.91 7.53003H149.79L156.11 26.05H153.55L151.57 20.22H145H145.01ZM151.09 18.35L149.28 13.02C148.86 11.81 148.59 10.71 148.32 9.64003H148.26C147.99 10.74 147.68 11.87 147.33 12.99L145.51 18.35H151.09Z" fill="#1D1D1B"/>
<path id="Vector_9" d="M184.54 17.41H177.34V24.09H185.37V26.1H174.95V7.57001H184.96V9.58001H177.34V15.43H184.54V17.41Z" fill="#1D1D1B"/>
<path id="Vector_10" d="M204.07 17.96C203.93 15.38 203.77 12.27 203.79 9.97002H203.71C203.07 12.14 202.31 14.45 201.37 17L198.1 25.99H196.28L193.29 17.17C192.41 14.56 191.67 12.17 191.15 9.97002H191.1C191.05 12.28 190.9 15.38 190.74 18.16L190.25 26.11H187.97L189.26 7.58002H192.31L195.47 16.54C196.24 18.82 196.87 20.85 197.33 22.78H197.41C197.88 20.91 198.54 18.88 199.37 16.54L202.67 7.58002H205.72L206.88 26.11H204.54L204.07 17.97V17.96Z" fill="#1D1D1B"/>
<path id="Vector_11" d="M158.1 25.98V7.59003H163.64C169.54 7.59003 172.52 11.68 172.52 16.75C172.52 22.32 169.05 25.97 163.64 25.97H158.1V25.98ZM163.64 9.66003H160.43V23.9H163.64C167.89 23.9 170.16 20.82 170.16 16.75C170.16 12.68 167.8 9.65003 163.64 9.65003" fill="#1D1D1B"/>
<path id="Vector_12" d="M213.73 26.08V18.2L207.86 7.5H210.59L215.06 15.58H215.11L219.65 7.5H222.38L216.16 18.16V26.08H213.73Z" fill="#1D1D1B"/>
<path id="Vector_13" d="M82.46 7.62V7.64V9.06V16.84L77.09 7.62H76.5H75.95H75.46H71.63V24.85V26.05V26.08H73.62H76.8V24.85V17.17L81.97 26.05H83.56H87.63V9.06V7.62H82.46Z" fill="#1D1D1B"/>
<path id="Vector_14" d="M132.61 24.01C128.97 24.01 126.27 20.6 126.24 16.78C126.26 12.97 128.97 9.56001 132.61 9.56001C134.53 9.56001 136.81 10.52 137.87 12.79L139.81 11.73C138.64 8.98001 135.35 7.45001 132.5 7.46001C127.51 7.46001 123.96 12.17 123.88 16.78C123.96 21.39 127.5 26.1 132.5 26.1C135.35 26.1 138.64 24.57 139.81 21.82L137.87 20.76C136.81 23.04 134.53 24 132.61 24" fill="#1D1D1B"/>
<path id="Vector_15" d="M71.56 44.27V32.23H76.06C76.54 32.23 76.97 32.33 77.38 32.53C77.78 32.73 78.12 32.99 78.41 33.32C78.7 33.65 78.92 34.02 79.09 34.43C79.25 34.84 79.33 35.26 79.33 35.68C79.33 36.1 79.26 36.56 79.1 36.97C78.95 37.39 78.73 37.75 78.45 38.08C78.17 38.41 77.84 38.66 77.45 38.86C77.06 39.05 76.63 39.15 76.15 39.15H72.93V44.27H71.56ZM72.93 37.93H76.08C76.36 37.93 76.62 37.87 76.85 37.76C77.08 37.64 77.27 37.48 77.44 37.27C77.6 37.06 77.73 36.82 77.82 36.55C77.91 36.28 77.96 35.99 77.96 35.68C77.96 35.37 77.91 35.07 77.8 34.8C77.7 34.52 77.55 34.29 77.37 34.08C77.19 33.88 76.99 33.72 76.75 33.61C76.51 33.5 76.26 33.44 76 33.44H72.94V37.92L72.93 37.93Z" fill="#706F6F"/>
<path id="Vector_16" d="M83.42 32.19H90.24V33.49H84.85V37.56H90.1V38.87H84.85V42.96H90.24V44.27H83.42V32.19Z" fill="#706F6F"/>
<path id="Vector_17" d="M95.37 44.26V32.15H97.08L103.09 42.2L103.07 32.15H104.46V44.26H102.99L96.75 34.07L96.73 44.26H95.37Z" fill="#706F6F"/>
<path id="Vector_18" d="M123.87 44.26V32.15H125.57L131.59 42.2L131.57 32.15H132.96V44.26H131.49L125.25 34.07L125.22 44.26H123.87Z" fill="#706F6F"/>
<path id="Vector_19" d="M136.96 38.27V38.24C136.96 34.96 139.37 32.05 142.96 32.05C144.98 32.05 146.22 32.63 147.42 33.64L146.55 34.67C145.63 33.87 144.6 33.3 142.91 33.3C140.26 33.3 138.36 35.54 138.36 38.2V38.24C138.36 41.09 140.19 43.12 143.09 43.12C144.46 43.12 145.72 42.69 146.45 42.02V39.23H142.9V37.83H147.84V42.6C146.73 43.59 145.05 44.43 143.04 44.43C139.28 44.43 136.96 41.7 136.96 38.28" fill="#706F6F"/>
<path id="Vector_20" d="M112.1 40.46L110.78 44.25H109.23L113.35 32.17H115.24L119.36 44.28H117.69L116.4 40.47H112.11L112.1 40.46ZM116.07 39.24L114.27 33.9L112.42 39.24H116.07Z" fill="#706F6F"/>
</g>
</g>
<defs>
<clipPath id="clip0_1001_2">
<rect width="222.38" height="44.42" fill="white"/>
</clipPath>
</defs>
</svg>
