<svg width="36" height="36" viewBox="0 0 36 36" fill="none" xmlns="http://www.w3.org/2000/svg">
<g id="yt-ico" clip-path="url(#clip0_261_7)">
<path id="empha" d="M34.88 17.69C34.88 27.1838 27.1838 34.88 17.69 34.88C8.19623 34.88 0.5 27.1838 0.5 17.69C0.5 8.19623 8.19623 0.5 17.69 0.5C27.1838 0.5 34.88 8.19623 34.88 17.69Z" fill="" stroke=""/>
<path id="plain" d="M21.1918 18.6081L21.2015 18.6033L21.211 18.5981C21.3853 18.5022 21.5155 18.3353 21.5462 18.1221C21.5727 17.9379 21.5158 17.781 21.4649 17.6818C21.3638 17.4847 21.187 17.3187 21.011 17.2219L21.0093 17.221L16.351 14.6819C16.3506 14.6817 16.3502 14.6815 16.3498 14.6813C16.1848 14.5909 16.001 14.5804 15.8867 14.5818C15.7534 14.5834 15.6132 14.6038 15.4842 14.6373C15.3593 14.6698 15.2149 14.7223 15.089 14.8055C14.9855 14.8739 14.76 15.0545 14.76 15.37V20.32C14.76 20.6422 14.9982 20.8206 15.0941 20.8823C15.218 20.9619 15.3599 21.013 15.4821 21.045C15.6085 21.078 15.7457 21.099 15.8752 21.1025C15.9819 21.1053 16.1621 21.0996 16.3254 21.0163L21.1918 18.6081ZM23.11 11.5C25.1839 11.5 26.86 13.1761 26.86 15.25V20.31C26.86 22.3839 25.1839 24.06 23.11 24.06H12.25C10.1761 24.06 8.5 22.3839 8.5 20.31V15.25C8.5 13.1761 10.1761 11.5 12.25 11.5H23.11Z" fill="" stroke=""/>
</g>
<defs>
<clipPath id="clip0_261_7">
<rect width="35.38" height="35.38" fill=""/>
</clipPath>
</defs>
</svg>
