<svg class="back-btn" width="27" height="27" viewBox="0 0 27 27" fill="none" xmlns="http://www.w3.org/2000/svg">
<g clip-path="url(#clip0_263_29)">
<path d="M26.105 21.891C25.876 21.891 25.666 21.76 25.576 21.545C25.51 21.389 23.86 17.688 17.691 16.955C16.406 16.799 14.867 16.719 12.998 16.705V21.318C12.998 21.531 12.883 21.724 12.694 21.826C12.506 21.924 12.281 21.91 12.106 21.793L0.254 13.815C0.094 13.708 0 13.528 0 13.339C0 13.148 0.094 12.974 0.254 12.862L12.111 4.88299C12.286 4.76199 12.509 4.75399 12.699 4.85399C12.889 4.95599 13.002 5.14899 13.002 5.35599V9.64899C15.58 9.98499 26.676 11.979 26.676 21.323C26.676 21.594 26.485 21.831 26.217 21.885C26.18 21.891 26.141 21.891 26.105 21.891Z" fill=""/>
</g>
<defs>
<clipPath id="clip0_263_29">
<rect width="26.676" height="26.676" fill=""/>
</clipPath>
</defs>
</svg>
