<svg width="36" height="36" viewBox="0 0 36 36" fill="none" xmlns="http://www.w3.org/2000/svg">
<g id="fb-ico" clip-path="url(#clip0_261_2)">
<path id="empha" d="M34.88 17.69V18.19H34.8929C34.6599 26.3443 28.7474 33.0782 20.97 34.5751V23.31H24.59H25.0195L25.0843 22.8854L25.8643 17.7754L25.9521 17.2H25.37H20.96V14.38C20.96 13.7518 21.1134 13.1953 21.4533 12.8019C21.7814 12.4222 22.348 12.12 23.34 12.12H25.57H26.07V11.62V7.27V6.84918L25.6554 6.77734L25.57 7.27C25.6554 6.77734 25.6553 6.77733 25.6553 6.77732L25.6551 6.7773L25.6547 6.77722L25.6533 6.77698L25.6482 6.77612L25.6296 6.77297L25.5594 6.76141C25.4985 6.75153 25.41 6.73753 25.2979 6.7208C25.0739 6.68734 24.7555 6.64285 24.3756 6.59839C23.6181 6.50972 22.6069 6.42 21.61 6.42C19.4889 6.42 17.6802 7.06504 16.4013 8.34539C15.1218 9.62622 14.43 11.4852 14.43 13.8V17.2H10.44H9.94V17.7V22.81V23.31H10.44H14.43V34.5751C6.49422 33.0477 0.5 26.0678 0.5 17.69C0.5 8.19614 8.19614 0.5 17.69 0.5C27.1839 0.5 34.88 8.19614 34.88 17.69Z" fill="" stroke=""/>
<path id="plain" d="M14.92 22.3H10.93V18.19H14.92H15.42V17.69V13.79C15.42 11.6748 16.0482 10.0937 17.0987 9.04209C18.1498 7.98993 19.6811 7.40997 21.6 7.40997C22.5431 7.40997 23.5119 7.49526 24.2494 7.58158C24.5736 7.61953 24.8512 7.65746 25.06 7.68796V11.11H23.33C22.1263 11.11 21.2536 11.4882 20.6909 12.1375C20.1398 12.7736 19.95 13.5967 19.95 14.37V17.69V18.19H20.45H24.7779L24.1505 22.3H20.44H19.94V22.8V34.7303C19.2025 34.8318 18.4493 34.88 17.68 34.88C16.9145 34.88 16.1613 34.8253 15.42 34.7269V22.8V22.3H14.92Z" fill="" stroke=""/>
</g>
<defs>
<clipPath id="clip0_261_2">
<rect width="35.38" height="35.38" fill=""/>
</clipPath>
</defs>
</svg>
