<svg width="43" height="57" viewBox="0 0 43 57" fill="none" xmlns="http://www.w3.org/2000/svg">
<g clip-path="url(#clip0_61_7)">
<path d="M21.1622 0C9.47462 0 0 9.47465 0 21.1622C0 35.683 14.6737 51.8216 20.0227 56.3713C20.6789 56.9295 21.6454 56.9295 22.3017 56.3713C27.6506 51.8216 42.3243 35.683 42.3243 21.1622C42.3244 9.47465 32.8497 0 21.1622 0ZM21.1622 34.5348C14.1373 34.5348 8.44246 28.84 8.44246 21.8151C8.44246 14.7902 14.1373 9.09542 21.1622 9.09542C28.1871 9.09542 33.8819 14.7902 33.8819 21.8151C33.8819 28.84 28.1871 34.5348 21.1622 34.5348Z" fill="#FF7024"/>
</g>
<defs>
<clipPath id="clip0_61_7">
<rect width="42.5" height="57" fill="white"/>
</clipPath>
</defs>
</svg>
