<svg width="254" height="47" viewBox="0 0 254 47" fill="none" xmlns="http://www.w3.org/2000/svg">
<g id="Logo" clip-path="url(#clip0_2_2)">
<g id="empha">
<path id="Vector" d="M68.86 5.67999C70.57 5.67999 72.17 6.05999 73.62 6.72999L68.86 -0.0100098L64.1 6.72999C65.55 6.05999 67.16 5.67999 68.86 5.67999Z" fill=""/>
</g>
<g id="plain">
<path id="Vector_2" d="M68.86 8.34C62.84 8.34 57.95 13.22 57.95 19.25C57.95 25.28 62.83 30.16 68.86 30.16C74.89 30.16 79.77 25.27 79.77 19.25C79.77 13.23 74.89 8.34 68.86 8.34ZM68.93 24.08C66.26 24.08 64.1 21.92 64.1 19.25C64.1 16.58 66.26 14.42 68.93 14.42C71.6 14.42 73.75 16.58 73.75 19.25C73.75 21.92 71.59 24.08 68.93 24.08" fill=""/>
<path id="Vector_3" d="M5.12 13.86H0V8.70999H15.95V13.86H11.02V29.73H5.12V13.86Z" fill=""/>
<path id="Vector_4" d="M23.97 8.70999V16.28H29.17V8.70999H35.06V29.73H29.17V21.42L23.98 21.43V29.73H18.08V8.70999H23.97Z" fill=""/>
<path id="Vector_5" d="M50.61 21.67H43.55V24.57H51.51V29.71H37.66V8.69H51.08V13.86L43.55 13.85V16.53H50.61V21.67Z" fill=""/>
<path id="Vector_6" d="M115.52 21.67H108.45L108.46 24.57H116.42V29.71H102.56V8.69H115.98V13.85H108.46L108.45 16.53H115.52V21.67Z" fill=""/>
<path id="Vector_7" d="M128.85 23.06L126.66 29.71H123.84L131.01 8.59H134.3L141.51 29.71H138.59L136.33 23.06H128.84H128.85ZM135.78 20.93L133.71 14.85C133.24 13.47 132.92 12.22 132.61 10.99H132.55C132.23 12.24 131.89 13.53 131.48 14.81L129.41 20.92H135.77L135.78 20.93Z" fill=""/>
<path id="Vector_8" d="M165.37 23.06L163.18 29.71H160.35L167.53 8.59H170.82L178.03 29.71H175.11L172.85 23.06H165.36H165.37ZM172.3 20.93L170.23 14.85C169.76 13.47 169.45 12.22 169.14 10.99H169.07C168.76 12.24 168.41 13.53 168 14.81L165.93 20.92H172.3V20.93Z" fill=""/>
<path id="Vector_9" d="M210.45 19.86H202.24V27.47H211.4L211.39 29.76H199.52V8.64001H210.92V10.93H202.24V17.6H210.45V19.86Z" fill=""/>
<path id="Vector_10" d="M232.72 20.48C232.56 17.54 232.37 13.99 232.4 11.36H232.31C231.58 13.83 230.71 16.47 229.64 19.38L225.91 29.63H223.84L220.42 19.57C219.42 16.59 218.57 13.87 217.98 11.36H217.92C217.86 13.99 217.7 17.53 217.51 20.7L216.95 29.76H214.35L215.82 8.63H219.3L222.9 18.85C223.78 21.44 224.5 23.77 225.03 25.96H225.12C225.66 23.83 226.41 21.51 227.35 18.85L231.11 8.63H234.59L235.91 29.76H233.25L232.72 20.48V20.48Z" fill=""/>
<path id="Vector_11" d="M180.3 29.63V8.66H186.62C193.35 8.66 196.75 13.32 196.75 19.11C196.75 25.46 192.8 29.63 186.62 29.63H180.31H180.3ZM186.62 11.02H182.96V27.26H186.62C191.47 27.26 194.06 23.75 194.06 19.11C194.06 14.47 191.37 11.02 186.62 11.02Z" fill=""/>
<path id="Vector_12" d="M243.74 29.74V20.75L237.05 8.56H240.16L245.25 17.77H245.31L250.49 8.56H253.61L246.5 20.71V29.74H243.74Z" fill=""/>
<path id="Vector_13" d="M94.04 8.69V8.71V10.33V19.2L87.92 8.69H87.24H86.62H86.06H81.69V28.34V29.71V29.74H83.95H87.59V28.34V19.58L93.48 29.71H95.29H99.93V10.33V8.69H94.04Z" fill=""/>
<path id="Vector_14" d="M151.23 27.38C147.08 27.38 144 23.49 143.97 19.14C144 14.8 147.08 10.9 151.23 10.9C153.42 10.9 156.02 11.99 157.23 14.59L159.45 13.38C158.11 10.25 154.37 8.51001 151.11 8.51001C145.42 8.51001 141.37 13.88 141.28 19.14C141.37 24.4 145.41 29.77 151.11 29.77C154.36 29.77 158.11 28.03 159.45 24.9L157.23 23.69C156.02 26.29 153.42 27.38 151.23 27.38" fill=""/>
<path id="Vector_15" d="M46.56 41.94C46.49 40.66 46.41 39.13 46.42 37.99H46.38C46.07 39.06 45.69 40.22 45.23 41.47L43.61 45.91H42.71L41.23 41.55C40.8 40.26 40.43 39.08 40.17 37.99H40.14C40.11 39.13 40.04 40.67 39.96 42.04L39.72 45.96H38.59L39.23 36.81H40.74L42.3 41.24C42.68 42.37 42.99 43.37 43.22 44.32H43.26C43.49 43.4 43.82 42.39 44.22 41.24L45.85 36.81H47.36L47.93 45.96H46.78L46.55 41.94H46.56Z" fill=""/>
<path id="Vector_16" d="M52.47 43.08L51.52 45.96H50.3L53.41 36.81H54.84L57.96 45.96H56.7L55.72 43.08H52.47ZM55.47 42.16L54.57 39.53C54.37 38.93 54.23 38.39 54.09 37.86H54.06C53.92 38.4 53.77 38.96 53.6 39.52L52.7 42.17H55.46L55.47 42.16Z" fill=""/>
<path id="Vector_17" d="M64.7 38.59C64.34 37.96 63.9 37.59 63.12 37.59C62.34 37.59 61.6 38.17 61.6 39.01C61.6 39.8 62.41 40.16 63.03 40.44L63.64 40.71C64.83 41.23 65.84 41.83 65.84 43.28C65.84 44.88 64.55 46.11 62.96 46.11C61.49 46.11 60.4 45.16 60.11 43.74L61.11 43.46C61.24 44.39 61.96 45.16 62.94 45.16C63.92 45.16 64.82 44.41 64.82 43.38C64.82 42.35 63.98 41.95 63.13 41.56L62.57 41.32C61.5 40.83 60.58 40.29 60.58 38.98C60.58 37.56 61.78 36.65 63.14 36.65C64.16 36.65 65.02 37.17 65.51 38.07L64.7 38.59V38.59Z" fill=""/>
<path id="Vector_18" d="M70.39 37.81H67.61V36.81H74.39V37.81H71.59V45.96H70.4V37.81H70.39Z" fill=""/>
<path id="Vector_19" d="M81.5 41.66H77.94V44.96H81.91V45.95H76.76V36.8H81.7V37.79H77.94V40.68H81.5V41.66V41.66Z" fill=""/>
<path id="Vector_20" d="M90.37 45.96L88.28 41.89H86.08V45.96H85.1V36.78H88.62C90.22 36.78 91.34 37.75 91.34 39.33C91.34 40.67 90.53 41.55 89.34 41.79L91.52 45.95H90.37V45.96ZM88.53 37.66H86.08V41.02H88.53C89.6 41.02 90.36 40.47 90.36 39.34C90.36 38.21 89.6 37.65 88.53 37.65V37.66Z" fill=""/>
<path id="Vector_21" d="M98.59 38.59C98.23 37.96 97.79 37.59 97.01 37.59C96.23 37.59 95.49 38.17 95.49 39.01C95.49 39.8 96.3 40.16 96.92 40.44L97.53 40.71C98.72 41.23 99.73 41.83 99.73 43.28C99.73 44.88 98.44 46.11 96.85 46.11C95.38 46.11 94.29 45.16 94 43.74L95 43.46C95.13 44.39 95.85 45.16 96.83 45.16C97.81 45.16 98.71 44.41 98.71 43.38C98.71 42.35 97.87 41.95 97.02 41.56L96.46 41.32C95.39 40.83 94.47 40.29 94.47 38.98C94.47 37.56 95.67 36.65 97.03 36.65C98.05 36.65 98.91 37.17 99.4 38.07L98.59 38.59V38.59Z" fill=""/>
<path id="Vector_22" d="M108.24 37.81H105.46V36.81H112.24V37.81H109.44V45.96H108.24V37.81Z" fill=""/>
<path id="Vector_23" d="M120.18 45.96L118.09 41.89H115.89V45.96H114.91V36.78H118.43C120.03 36.78 121.15 37.75 121.15 39.33C121.15 40.67 120.34 41.55 119.15 41.79L121.33 45.95H120.18V45.96ZM118.34 37.66H115.89V41.02H118.34C119.41 41.02 120.17 40.47 120.17 39.34C120.17 38.21 119.41 37.65 118.34 37.65V37.66Z" fill=""/>
<path id="Vector_24" d="M125.84 43.08L124.89 45.96H123.67L126.78 36.81H128.21L131.33 45.96H130.07L129.09 43.08H125.84V43.08ZM128.84 42.16L127.94 39.53C127.74 38.93 127.6 38.39 127.46 37.86H127.43C127.29 38.4 127.14 38.96 126.97 39.52L126.07 42.17H128.83L128.84 42.16Z" fill=""/>
<path id="Vector_25" d="M135.21 36.8V45.95H134.03V36.8H135.21Z" fill=""/>
<path id="Vector_26" d="M138.63 45.96V36.81H139.92L142.85 41.44C143.53 42.51 144.06 43.48 144.49 44.41H144.52C144.41 43.17 144.38 42.06 144.38 40.64V36.81H145.49V45.96H144.3L141.39 41.31C140.75 40.29 140.14 39.25 139.68 38.25H139.64C139.71 39.42 139.74 40.52 139.74 42.04V45.95H138.63V45.96Z" fill=""/>
<path id="Vector_27" d="M161.15 41.94C161.08 40.66 161 39.13 161.01 37.99H160.97C160.66 39.06 160.28 40.22 159.82 41.47L158.2 45.91H157.3L155.82 41.55C155.39 40.26 155.02 39.08 154.76 37.99H154.73C154.7 39.13 154.63 40.67 154.55 42.04L154.31 45.96H153.18L153.82 36.81H155.33L156.89 41.24C157.27 42.37 157.58 43.37 157.81 44.32H157.85C158.08 43.4 158.41 42.39 158.81 41.24L160.44 36.81H161.95L162.52 45.96H161.37L161.14 41.94H161.15Z" fill=""/>
<path id="Vector_28" d="M167.06 43.08L166.11 45.96H164.89L168 36.81H169.43L172.55 45.96H171.29L170.31 43.08H167.06V43.08ZM170.06 42.16L169.16 39.53C168.96 38.93 168.82 38.39 168.68 37.86H168.65C168.51 38.4 168.36 38.96 168.19 39.52L167.29 42.17H170.05L170.06 42.16Z" fill=""/>
<path id="Vector_29" d="M179.29 38.59C178.93 37.96 178.49 37.59 177.71 37.59C176.93 37.59 176.19 38.17 176.19 39.01C176.19 39.8 177 40.16 177.62 40.44L178.23 40.71C179.42 41.23 180.43 41.83 180.43 43.28C180.43 44.88 179.14 46.11 177.55 46.11C176.08 46.11 174.99 45.16 174.7 43.74L175.7 43.46C175.83 44.39 176.55 45.16 177.53 45.16C178.51 45.16 179.41 44.41 179.41 43.38C179.41 42.35 178.57 41.95 177.72 41.56L177.16 41.32C176.09 40.83 175.17 40.29 175.17 38.98C175.17 37.56 176.37 36.65 177.73 36.65C178.75 36.65 179.61 37.17 180.1 38.07L179.29 38.59V38.59Z" fill=""/>
<path id="Vector_30" d="M184.98 37.81H182.2V36.81H188.98V37.81H186.18V45.96H184.99V37.81H184.98Z" fill=""/>
<path id="Vector_31" d="M196.09 41.66H192.53V44.96H196.5V45.95H191.35V36.8H196.29V37.79H192.53V40.68H196.09V41.66Z" fill=""/>
<path id="Vector_32" d="M204.96 45.96L202.87 41.89H200.67V45.96H199.69V36.78H203.21C204.81 36.78 205.93 37.75 205.93 39.33C205.93 40.67 205.12 41.55 203.93 41.79L206.11 45.95H204.96V45.96ZM203.12 37.66H200.67V41.02H203.12C204.19 41.02 204.95 40.47 204.95 39.34C204.95 38.21 204.19 37.65 203.12 37.65V37.66Z" fill=""/>
<path id="Vector_33" d="M213.19 38.59C212.83 37.96 212.39 37.59 211.61 37.59C210.83 37.59 210.09 38.17 210.09 39.01C210.09 39.8 210.9 40.16 211.52 40.44L212.13 40.71C213.32 41.23 214.33 41.83 214.33 43.28C214.33 44.88 213.04 46.11 211.45 46.11C209.98 46.11 208.89 45.16 208.6 43.74L209.59 43.46C209.72 44.39 210.44 45.16 211.42 45.16C212.4 45.16 213.3 44.41 213.3 43.38C213.3 42.35 212.46 41.95 211.61 41.56L211.05 41.32C209.98 40.83 209.06 40.29 209.06 38.98C209.06 37.56 210.26 36.65 211.62 36.65C212.64 36.65 213.5 37.17 213.99 38.07L213.18 38.59H213.19Z" fill=""/>
</g>
</g>
<defs>
<clipPath id="clip0_2_2">
<rect width="253.61" height="46.11" fill="white"/>
</clipPath>
</defs>
</svg>
