<svg width="36" height="36" viewBox="0 0 36 36" fill="none" xmlns="http://www.w3.org/2000/svg">
<g id="whats-ico" clip-path="url(#clip0_261_20)">
<path id="empha" d="M28.9407 4.68923C36.1198 10.9014 36.9037 21.7573 30.6915 28.9364C24.4793 36.1156 13.6234 36.8995 6.44427 30.6873C-0.734883 24.4751 -1.51875 13.6192 4.69345 6.44005C10.9057 -0.739106 21.7615 -1.52298 28.9407 4.68923Z" fill="" stroke=""/>
<g id="plain">
<path id="Vector" d="M13.5407 25.737L8.83729 26.9958L10.0928 22.3299L10.1455 22.1341L10.0469 21.9569C9.24888 20.5223 8.84 18.9161 8.84 17.29C8.84 11.9661 13.1761 7.63 18.5 7.63C23.8239 7.63 28.16 11.9661 28.16 17.29C28.16 22.6139 23.8239 26.95 18.5 26.95C16.9034 26.95 15.3255 26.5509 13.9088 25.7807L13.7335 25.6854L13.5407 25.737ZM13.8563 24.6929L14.0328 24.7988L14.0347 24.7999C15.3914 25.6054 16.9295 26.03 18.5 26.03C23.3161 26.03 27.24 22.1061 27.24 17.29C27.24 12.4739 23.3161 8.55 18.5 8.55C13.6839 8.55 9.76 12.4739 9.76 17.29C9.76 18.8824 10.2056 20.4519 11.0424 21.8191L11.1423 21.9856L10.3769 24.851L10.1535 25.6875L10.9897 25.4629L13.8563 24.6929Z" fill="" stroke=""/>
<path id="Vector_2" d="M22.0143 19.1297L22.0165 19.1268C22.0916 19.1709 22.1631 19.2107 22.2322 19.2492C22.3783 19.3305 22.5135 19.4058 22.6487 19.5027C22.8456 19.6438 22.9082 19.7435 22.9221 19.7994C22.9416 19.8938 22.9254 20.0338 22.8576 20.1998C22.6305 20.7483 22.0454 21.1401 21.3858 21.269C20.8189 21.3759 20.3525 21.2179 19.6824 20.9908C19.6586 20.9827 19.6345 20.9746 19.6102 20.9664L19.6102 20.9664L19.6058 20.9649C19.0457 20.7813 18.502 20.502 17.9687 20.1821C16.931 19.5498 16.0381 18.6968 15.3123 17.7132L15.3116 17.7121C15.0956 17.421 14.8954 17.1071 14.701 16.7765L14.7005 16.7757C14.4502 16.352 14.2392 15.9223 14.1363 15.4937C14.0935 15.3137 14.07 15.1433 14.07 14.97H14.07L14.07 14.9635C14.0616 14.3194 14.3134 13.7053 14.7763 13.3273L14.7763 13.3273L14.779 13.325C15.0244 13.1217 15.3199 13.0984 15.4743 13.1855L15.4763 13.1866C15.5713 13.2396 15.6778 13.3561 15.7961 13.5651C15.8804 13.7139 15.947 13.8633 16.0186 14.0241C16.0497 14.094 16.0818 14.1659 16.1166 14.2409L16.1166 14.2409L16.1176 14.2429C16.28 14.5879 16.3774 14.8854 16.3471 15.0957C16.3289 15.1877 16.2807 15.2912 16.1932 15.4171C16.1159 15.5284 16.027 15.6314 15.9235 15.7513C15.9031 15.775 15.882 15.7994 15.8604 15.8246L15.8604 15.8246L15.8575 15.8279C15.7437 15.9631 15.6312 16.1435 15.6087 16.3722C15.5858 16.6045 15.6633 16.8041 15.7649 16.9634C16.5995 18.3616 17.7719 19.3723 19.2902 19.9826C19.437 20.0438 19.6253 20.091 19.8325 20.0509C20.0516 20.0085 20.2179 19.8832 20.3381 19.7353L20.3381 19.7353L20.3404 19.7324C20.4216 19.6309 20.4958 19.5134 20.5577 19.4131C20.5739 19.3869 20.5894 19.3616 20.6045 19.3369C20.6524 19.2587 20.6962 19.1871 20.7435 19.1161C20.8801 18.9113 20.9615 18.8478 20.9936 18.8351L20.9936 18.8351L20.9957 18.8343C21.105 18.7905 21.2405 18.7885 21.4241 18.8445C21.6126 18.902 21.8088 19.0074 22.0143 19.1297Z" fill="" stroke=""/>
</g>
</g>
<defs>
<clipPath id="clip0_261_20">
<rect width="35.38" height="35.38" fill=""/>
</clipPath>
</defs>
</svg>
